<svg xmlns="http://www.w3.org/2000/svg" xmlns:xlink="http://www.w3.org/1999/xlink" width="597" height="162" font-size="8.000000pt" font-family="Arial" fill="#000000"><polygon points="217.500000,36.500000 217.500000,24.500000 265.500000,48.500000 265.500000,60.500000 " fill="#ffaa22" stroke="#000000" stroke-width="1"/><polygon points="313.500000,36.500000 313.500000,24.500000 265.500000,48.500000 265.500000,60.500000 " fill="#cc7700" stroke="#000000" stroke-width="1"/><polygon points="217.500000,24.500000 265.500000,0.500000 313.500000,24.500000 265.500000,48.500000 " fill="#ffdd55" stroke="#000000" stroke-width="1"/><polygon points="217.500000,36.500000 217.500000,28.500000 265.500000,52.500000 265.500000,60.500000 " fill="#dd2222" stroke="#000000" stroke-width="1"/><polygon points="313.500000,36.500000 313.500000,28.500000 265.500000,52.500000 265.500000,60.500000 " fill="#aa0000" stroke="#000000" stroke-width="1"/><polygon points="305.500000,56.500000 305.500000,56.500000 329.500000,68.500000 329.500000,68.500000 " fill="#999999" stroke="#000000" stroke-width="1"/><polygon points="353.500000,56.500000 353.500000,56.500000 329.500000,68.500000 329.500000,68.500000 " fill="#666666" stroke="#000000" stroke-width="1"/><polygon points="305.500000,56.500000 329.500000,44.500000 353.500000,56.500000 329.500000,68.500000 " fill="#cccccc" stroke="#000000" stroke-width="1"/><polygon points="177.500000,56.500000 177.500000,56.500000 201.500000,68.500000 201.500000,68.500000 " fill="#999999" stroke="#000000" stroke-width="1"/><polygon points="225.500000,56.500000 225.500000,56.500000 201.500000,68.500000 201.500000,68.500000 " fill="#666666" stroke="#000000" stroke-width="1"/><polygon points="177.500000,56.500000 201.500000,44.500000 225.500000,56.500000 201.500000,68.500000 " fill="#cccccc" stroke="#000000" stroke-width="1"/><polygon points="209.500000,72.500000 209.500000,72.500000 233.500000,84.500000 233.500000,84.500000 " fill="#999999" stroke="#000000" stroke-width="1"/><polygon points="257.500000,72.500000 257.500000,72.500000 233.500000,84.500000 233.500000,84.500000 " fill="#666666" stroke="#000000" stroke-width="1"/><polygon points="209.500000,72.500000 233.500000,60.500000 257.500000,72.500000 233.500000,84.500000 " fill="#cccccc" stroke="#000000" stroke-width="1"/><polygon points="273.500000,72.500000 273.500000,72.500000 297.500000,84.500000 297.500000,84.500000 " fill="#999999" stroke="#000000" stroke-width="1"/><polygon points="321.500000,72.500000 321.500000,72.500000 297.500000,84.500000 297.500000,84.500000 " fill="#666666" stroke="#000000" stroke-width="1"/><polygon points="273.500000,72.500000 297.500000,60.500000 321.500000,72.500000 297.500000,84.500000 " fill="#cccccc" stroke="#000000" stroke-width="1"/><polygon points="145.500000,72.500000 145.500000,72.500000 169.500000,84.500000 169.500000,84.500000 " fill="#999999" stroke="#000000" stroke-width="1"/><polygon points="193.500000,72.500000 193.500000,72.500000 169.500000,84.500000 169.500000,84.500000 " fill="#666666" stroke="#000000" stroke-width="1"/><polygon points="145.500000,72.500000 169.500000,60.500000 193.500000,72.500000 169.500000,84.500000 " fill="#cccccc" stroke="#000000" stroke-width="1"/><polygon points="337.500000,72.500000 337.500000,72.500000 361.500000,84.500000 361.500000,84.500000 " fill="#999999" stroke="#000000" stroke-width="1"/><polygon points="385.500000,72.500000 385.500000,72.500000 361.500000,84.500000 361.500000,84.500000 " fill="#666666" stroke="#000000" stroke-width="1"/><polygon points="337.500000,72.500000 361.500000,60.500000 385.500000,72.500000 361.500000,84.500000 " fill="#cccccc" stroke="#000000" stroke-width="1"/><polygon points="241.500000,88.500000 241.500000,88.500000 265.500000,100.500000 265.500000,100.500000 " fill="#999999" stroke="#000000" stroke-width="1"/><polygon points="289.500000,88.500000 289.500000,88.500000 265.500000,100.500000 265.500000,100.500000 " fill="#666666" stroke="#000000" stroke-width="1"/><polygon points="241.500000,88.500000 265.500000,76.500000 289.500000,88.500000 265.500000,100.500000 " fill="#cccccc" stroke="#000000" stroke-width="1"/><polygon points="177.500000,88.500000 177.500000,88.500000 201.500000,100.500000 201.500000,100.500000 " fill="#999999" stroke="#000000" stroke-width="1"/><polygon points="225.500000,88.500000 225.500000,88.500000 201.500000,100.500000 201.500000,100.500000 " fill="#666666" stroke="#000000" stroke-width="1"/><polygon points="177.500000,88.500000 201.500000,76.500000 225.500000,88.500000 201.500000,100.500000 " fill="#cccccc" stroke="#000000" stroke-width="1"/><polygon points="305.500000,88.500000 305.500000,88.500000 329.500000,100.500000 329.500000,100.500000 " fill="#999999" stroke="#000000" stroke-width="1"/><polygon points="353.500000,88.500000 353.500000,88.500000 329.500000,100.500000 329.500000,100.500000 " fill="#666666" stroke="#000000" stroke-width="1"/><polygon points="305.500000,88.500000 329.500000,76.500000 353.500000,88.500000 329.500000,100.500000 " fill="#cccccc" stroke="#000000" stroke-width="1"/><polygon points="113.500000,88.500000 113.500000,88.500000 137.500000,100.500000 137.500000,100.500000 " fill="#999999" stroke="#000000" stroke-width="1"/><polygon points="161.500000,88.500000 161.500000,88.500000 137.500000,100.500000 137.500000,100.500000 " fill="#666666" stroke="#000000" stroke-width="1"/><polygon points="113.500000,88.500000 137.500000,76.500000 161.500000,88.500000 137.500000,100.500000 " fill="#cccccc" stroke="#000000" stroke-width="1"/><polygon points="369.500000,88.500000 369.500000,88.500000 393.500000,100.500000 393.500000,100.500000 " fill="#999999" stroke="#000000" stroke-width="1"/><polygon points="417.500000,88.500000 417.500000,88.500000 393.500000,100.500000 393.500000,100.500000 " fill="#666666" stroke="#000000" stroke-width="1"/><polygon points="369.500000,88.500000 393.500000,76.500000 417.500000,88.500000 393.500000,100.500000 " fill="#cccccc" stroke="#000000" stroke-width="1"/><polygon points="209.500000,104.500000 209.500000,104.500000 233.500000,116.500000 233.500000,116.500000 " fill="#999999" stroke="#000000" stroke-width="1"/><polygon points="257.500000,104.500000 257.500000,104.500000 233.500000,116.500000 233.500000,116.500000 " fill="#666666" stroke="#000000" stroke-width="1"/><polygon points="209.500000,104.500000 233.500000,92.500000 257.500000,104.500000 233.500000,116.500000 " fill="#cccccc" stroke="#000000" stroke-width="1"/><polygon points="273.500000,104.500000 273.500000,104.500000 297.500000,116.500000 297.500000,116.500000 " fill="#999999" stroke="#000000" stroke-width="1"/><polygon points="321.500000,104.500000 321.500000,104.500000 297.500000,116.500000 297.500000,116.500000 " fill="#666666" stroke="#000000" stroke-width="1"/><polygon points="273.500000,104.500000 297.500000,92.500000 321.500000,104.500000 297.500000,116.500000 " fill="#cccccc" stroke="#000000" stroke-width="1"/><polygon points="145.500000,104.500000 145.500000,104.500000 169.500000,116.500000 169.500000,116.500000 " fill="#999999" stroke="#000000" stroke-width="1"/><polygon points="193.500000,104.500000 193.500000,104.500000 169.500000,116.500000 169.500000,116.500000 " fill="#666666" stroke="#000000" stroke-width="1"/><polygon points="145.500000,104.500000 169.500000,92.500000 193.500000,104.500000 169.500000,116.500000 " fill="#cccccc" stroke="#000000" stroke-width="1"/><polygon points="349.500000,98.500000 349.500000,98.500000 361.500000,104.500000 361.500000,104.500000 " fill="#999999" stroke="#000000" stroke-width="1"/><polygon points="373.500000,98.500000 373.500000,98.500000 361.500000,104.500000 361.500000,104.500000 " fill="#666666" stroke="#000000" stroke-width="1"/><polygon points="349.500000,98.500000 361.500000,92.500000 373.500000,98.500000 361.500000,104.500000 " fill="#cccccc" stroke="#000000" stroke-width="1"/><polygon points="413.500000,98.500000 413.500000,98.500000 425.500000,104.500000 425.500000,104.500000 " fill="#999999" stroke="#000000" stroke-width="1"/><polygon points="437.500000,98.500000 437.500000,98.500000 425.500000,104.500000 425.500000,104.500000 " fill="#666666" stroke="#000000" stroke-width="1"/><polygon points="413.500000,98.500000 425.500000,92.500000 437.500000,98.500000 425.500000,104.500000 " fill="#cccccc" stroke="#000000" stroke-width="1"/><polygon points="397.500000,106.500000 397.500000,106.500000 409.500000,112.500000 409.500000,112.500000 " fill="#999999" stroke="#000000" stroke-width="1"/><polygon points="421.500000,106.500000 421.500000,106.500000 409.500000,112.500000 409.500000,112.500000 " fill="#666666" stroke="#000000" stroke-width="1"/><polygon points="397.500000,106.500000 409.500000,100.500000 421.500000,106.500000 409.500000,112.500000 " fill="#cccccc" stroke="#000000" stroke-width="1"/><polygon points="365.500000,106.500000 365.500000,106.500000 377.500000,112.500000 377.500000,112.500000 " fill="#999999" stroke="#000000" stroke-width="1"/><polygon points="389.500000,106.500000 389.500000,106.500000 377.500000,112.500000 377.500000,112.500000 " fill="#666666" stroke="#000000" stroke-width="1"/><polygon points="365.500000,106.500000 377.500000,100.500000 389.500000,106.500000 377.500000,112.500000 " fill="#cccccc" stroke="#000000" stroke-width="1"/><polygon points="429.500000,106.500000 429.500000,106.500000 441.500000,112.500000 441.500000,112.500000 " fill="#999999" stroke="#000000" stroke-width="1"/><polygon points="453.500000,106.500000 453.500000,106.500000 441.500000,112.500000 441.500000,112.500000 " fill="#666666" stroke="#000000" stroke-width="1"/><polygon points="429.500000,106.500000 441.500000,100.500000 453.500000,106.500000 441.500000,112.500000 " fill="#cccccc" stroke="#000000" stroke-width="1"/><polygon points="333.500000,106.500000 333.500000,106.500000 345.500000,112.500000 345.500000,112.500000 " fill="#999999" stroke="#000000" stroke-width="1"/><polygon points="357.500000,106.500000 357.500000,106.500000 345.500000,112.500000 345.500000,112.500000 " fill="#666666" stroke="#000000" stroke-width="1"/><polygon points="333.500000,106.500000 345.500000,100.500000 357.500000,106.500000 345.500000,112.500000 " fill="#cccccc" stroke="#000000" stroke-width="1"/><polygon points="241.500000,120.500000 241.500000,120.500000 265.500000,132.500000 265.500000,132.500000 " fill="#999999" stroke="#000000" stroke-width="1"/><polygon points="289.500000,120.500000 289.500000,120.500000 265.500000,132.500000 265.500000,132.500000 " fill="#666666" stroke="#000000" stroke-width="1"/><polygon points="241.500000,120.500000 265.500000,108.500000 289.500000,120.500000 265.500000,132.500000 " fill="#cccccc" stroke="#000000" stroke-width="1"/><polygon points="177.500000,120.500000 177.500000,120.500000 201.500000,132.500000 201.500000,132.500000 " fill="#999999" stroke="#000000" stroke-width="1"/><polygon points="225.500000,120.500000 225.500000,120.500000 201.500000,132.500000 201.500000,132.500000 " fill="#666666" stroke="#000000" stroke-width="1"/><polygon points="177.500000,120.500000 201.500000,108.500000 225.500000,120.500000 201.500000,132.500000 " fill="#cccccc" stroke="#000000" stroke-width="1"/><polygon points="381.500000,114.500000 381.500000,114.500000 393.500000,120.500000 393.500000,120.500000 " fill="#999999" stroke="#000000" stroke-width="1"/><polygon points="405.500000,114.500000 405.500000,114.500000 393.500000,120.500000 393.500000,120.500000 " fill="#666666" stroke="#000000" stroke-width="1"/><polygon points="381.500000,114.500000 393.500000,108.500000 405.500000,114.500000 393.500000,120.500000 " fill="#cccccc" stroke="#000000" stroke-width="1"/><polygon points="413.500000,114.500000 413.500000,114.500000 425.500000,120.500000 425.500000,120.500000 " fill="#999999" stroke="#000000" stroke-width="1"/><polygon points="437.500000,114.500000 437.500000,114.500000 425.500000,120.500000 425.500000,120.500000 " fill="#666666" stroke="#000000" stroke-width="1"/><polygon points="413.500000,114.500000 425.500000,108.500000 437.500000,114.500000 425.500000,120.500000 " fill="#cccccc" stroke="#000000" stroke-width="1"/><polygon points="349.500000,114.500000 349.500000,114.500000 361.500000,120.500000 361.500000,120.500000 " fill="#999999" stroke="#000000" stroke-width="1"/><polygon points="373.500000,114.500000 373.500000,114.500000 361.500000,120.500000 361.500000,120.500000 " fill="#666666" stroke="#000000" stroke-width="1"/><polygon points="349.500000,114.500000 361.500000,108.500000 373.500000,114.500000 361.500000,120.500000 " fill="#cccccc" stroke="#000000" stroke-width="1"/><polygon points="445.500000,114.500000 445.500000,114.500000 457.500000,120.500000 457.500000,120.500000 " fill="#999999" stroke="#000000" stroke-width="1"/><polygon points="469.500000,114.500000 469.500000,114.500000 457.500000,120.500000 457.500000,120.500000 " fill="#666666" stroke="#000000" stroke-width="1"/><polygon points="445.500000,114.500000 457.500000,108.500000 469.500000,114.500000 457.500000,120.500000 " fill="#cccccc" stroke="#000000" stroke-width="1"/><polygon points="317.500000,114.500000 317.500000,114.500000 329.500000,120.500000 329.500000,120.500000 " fill="#999999" stroke="#000000" stroke-width="1"/><polygon points="341.500000,114.500000 341.500000,114.500000 329.500000,120.500000 329.500000,120.500000 " fill="#666666" stroke="#000000" stroke-width="1"/><polygon points="317.500000,114.500000 329.500000,108.500000 341.500000,114.500000 329.500000,120.500000 " fill="#cccccc" stroke="#000000" stroke-width="1"/><polygon points="397.500000,122.500000 397.500000,122.500000 409.500000,128.500000 409.500000,128.500000 " fill="#999999" stroke="#000000" stroke-width="1"/><polygon points="421.500000,122.500000 421.500000,122.500000 409.500000,128.500000 409.500000,128.500000 " fill="#666666" stroke="#000000" stroke-width="1"/><polygon points="397.500000,122.500000 409.500000,116.500000 421.500000,122.500000 409.500000,128.500000 " fill="#cccccc" stroke="#000000" stroke-width="1"/><polygon points="365.500000,122.500000 365.500000,122.500000 377.500000,128.500000 377.500000,128.500000 " fill="#999999" stroke="#000000" stroke-width="1"/><polygon points="389.500000,122.500000 389.500000,122.500000 377.500000,128.500000 377.500000,128.500000 " fill="#666666" stroke="#000000" stroke-width="1"/><polygon points="365.500000,122.500000 377.500000,116.500000 389.500000,122.500000 377.500000,128.500000 " fill="#cccccc" stroke="#000000" stroke-width="1"/><polygon points="429.500000,122.500000 429.500000,122.500000 441.500000,128.500000 441.500000,128.500000 " fill="#999999" stroke="#000000" stroke-width="1"/><polygon points="453.500000,122.500000 453.500000,122.500000 441.500000,128.500000 441.500000,128.500000 " fill="#666666" stroke="#000000" stroke-width="1"/><polygon points="429.500000,122.500000 441.500000,116.500000 453.500000,122.500000 441.500000,128.500000 " fill="#cccccc" stroke="#000000" stroke-width="1"/><polygon points="333.500000,122.500000 333.500000,122.500000 345.500000,128.500000 345.500000,128.500000 " fill="#999999" stroke="#000000" stroke-width="1"/><polygon points="357.500000,122.500000 357.500000,122.500000 345.500000,128.500000 345.500000,128.500000 " fill="#666666" stroke="#000000" stroke-width="1"/><polygon points="333.500000,122.500000 345.500000,116.500000 357.500000,122.500000 345.500000,128.500000 " fill="#cccccc" stroke="#000000" stroke-width="1"/><polygon points="221.500000,130.500000 221.500000,130.500000 233.500000,136.500000 233.500000,136.500000 " fill="#999999" stroke="#000000" stroke-width="1"/><polygon points="245.500000,130.500000 245.500000,130.500000 233.500000,136.500000 233.500000,136.500000 " fill="#666666" stroke="#000000" stroke-width="1"/><polygon points="221.500000,130.500000 233.500000,124.500000 245.500000,130.500000 233.500000,136.500000 " fill="#cccccc" stroke="#000000" stroke-width="1"/><polygon points="157.500000,130.500000 157.500000,130.500000 169.500000,136.500000 169.500000,136.500000 " fill="#999999" stroke="#000000" stroke-width="1"/><polygon points="181.500000,130.500000 181.500000,130.500000 169.500000,136.500000 169.500000,136.500000 " fill="#666666" stroke="#000000" stroke-width="1"/><polygon points="157.500000,130.500000 169.500000,124.500000 181.500000,130.500000 169.500000,136.500000 " fill="#cccccc" stroke="#000000" stroke-width="1"/><polygon points="381.500000,130.500000 381.500000,130.500000 393.500000,136.500000 393.500000,136.500000 " fill="#999999" stroke="#000000" stroke-width="1"/><polygon points="405.500000,130.500000 405.500000,130.500000 393.500000,136.500000 393.500000,136.500000 " fill="#666666" stroke="#000000" stroke-width="1"/><polygon points="381.500000,130.500000 393.500000,124.500000 405.500000,130.500000 393.500000,136.500000 " fill="#cccccc" stroke="#000000" stroke-width="1"/><polygon points="413.500000,130.500000 413.500000,130.500000 425.500000,136.500000 425.500000,136.500000 " fill="#999999" stroke="#000000" stroke-width="1"/><polygon points="437.500000,130.500000 437.500000,130.500000 425.500000,136.500000 425.500000,136.500000 " fill="#666666" stroke="#000000" stroke-width="1"/><polygon points="413.500000,130.500000 425.500000,124.500000 437.500000,130.500000 425.500000,136.500000 " fill="#cccccc" stroke="#000000" stroke-width="1"/><polygon points="465.500000,136.500000 465.500000,136.500000 489.500000,148.500000 489.500000,148.500000 " fill="#999999" stroke="#000000" stroke-width="1"/><polygon points="513.500000,136.500000 513.500000,136.500000 489.500000,148.500000 489.500000,148.500000 " fill="#666666" stroke="#000000" stroke-width="1"/><polygon points="465.500000,136.500000 489.500000,124.500000 513.500000,136.500000 489.500000,148.500000 " fill="#cccccc" stroke="#000000" stroke-width="1"/><polygon points="173.500000,138.500000 173.500000,138.500000 185.500000,144.500000 185.500000,144.500000 " fill="#999999" stroke="#000000" stroke-width="1"/><polygon points="197.500000,138.500000 197.500000,138.500000 185.500000,144.500000 185.500000,144.500000 " fill="#666666" stroke="#000000" stroke-width="1"/><polygon points="173.500000,138.500000 185.500000,132.500000 197.500000,138.500000 185.500000,144.500000 " fill="#cccccc" stroke="#000000" stroke-width="1"/><polygon points="397.500000,138.500000 397.500000,138.500000 409.500000,144.500000 409.500000,144.500000 " fill="#999999" stroke="#000000" stroke-width="1"/><polygon points="421.500000,138.500000 421.500000,138.500000 409.500000,144.500000 409.500000,144.500000 " fill="#666666" stroke="#000000" stroke-width="1"/><polygon points="397.500000,138.500000 409.500000,132.500000 421.500000,138.500000 409.500000,144.500000 " fill="#cccccc" stroke="#000000" stroke-width="1"/><polygon points="445.500000,146.500000 445.500000,146.500000 457.500000,152.500000 457.500000,152.500000 " fill="#999999" stroke="#000000" stroke-width="1"/><polygon points="469.500000,146.500000 469.500000,146.500000 457.500000,152.500000 457.500000,152.500000 " fill="#666666" stroke="#000000" stroke-width="1"/><polygon points="445.500000,146.500000 457.500000,140.500000 469.500000,146.500000 457.500000,152.500000 " fill="#cccccc" stroke="#000000" stroke-width="1"/><polygon points="509.500000,146.500000 509.500000,146.500000 521.500000,152.500000 521.500000,152.500000 " fill="#999999" stroke="#000000" stroke-width="1"/><polygon points="533.500000,146.500000 533.500000,146.500000 521.500000,152.500000 521.500000,152.500000 " fill="#666666" stroke="#000000" stroke-width="1"/><polygon points="509.500000,146.500000 521.500000,140.500000 533.500000,146.500000 521.500000,152.500000 " fill="#cccccc" stroke="#000000" stroke-width="1"/><text clip-path="url(#cp-1)" x="227" y="28" stroke="#ffffff" stroke-width="2" paint-order="stroke" stroke-opacity="0.75"><tspan x="265" text-anchor="middle">COOP by Ryder</tspan></text><clipPath id="cp-1"><rect x="226" y="16" width="77" height="15"/></clipPath></svg>
